<?xml version="1.0" encoding="utf-8"?>

<!DOCTYPE svg PUBLIC "-//W3C//DTD SVG 1.1//EN" "http://www.w3.org/Graphics/SVG/1.1/DTD/svg11.dtd">
<svg version="1.1" id="Layer_1" xmlns="http://www.w3.org/2000/svg" xmlns:xlink="http://www.w3.org/1999/xlink" x="0px" y="0px"
	 viewBox="0 0 1635.375 1635.375" enable-background="new 0 0 1635.375 1635.375" xml:space="preserve">
<g>
	<g>
		<polygon points="656.789,1503.437 817.513,819.264 596.203,1555.076 641.266,1567.151 829.871,1617.688 		"/>
	</g>
	<g>
		<polygon points="484.786,1438.427 817.11,819.165 412.899,1472.626 453.302,1495.953 622.401,1593.582 		"/>
	</g>
	<g>
		<polygon points="335.471,1331.115 816.748,818.966 257.182,1345.543 290.171,1378.531 428.239,1516.6 		"/>
	</g>
	<g>
		<polygon points="219.017,1188.813 816.449,818.679 139.662,1182.487 162.988,1222.89 260.617,1391.988 		"/>
	</g>
	<g>
		<polygon points="143.362,1021.22 816.235,818.324 68.348,994.57 80.423,1039.634 130.959,1228.239 		"/>
	</g>
	<g>
		<polygon points="113.661,839.757 816.119,817.927 48.1,794.6 48.1,841.253 48.1,1036.511 		"/>
	</g>
	<g>
		<polygon points="131.938,656.789 816.111,817.513 80.299,596.203 68.224,641.266 17.688,829.871 		"/>
	</g>
	<g>
		<polygon points="196.948,484.786 816.21,817.11 162.749,412.899 139.423,453.302 41.794,622.401 		"/>
	</g>
	<g>
		<polygon points="304.26,335.471 816.41,816.748 289.833,257.182 256.844,290.171 118.776,428.239 		"/>
	</g>
	<g>
		<polygon points="446.562,219.017 816.696,816.449 452.888,139.662 412.485,162.988 243.387,260.617 		"/>
	</g>
	<g>
		<polygon points="614.155,143.362 817.051,816.235 640.805,68.348 595.741,80.423 407.136,130.959 		"/>
	</g>
	<g>
		<polygon points="795.619,113.661 817.449,816.119 840.775,48.1 794.122,48.1 598.864,48.1 		"/>
	</g>
	<g>
		<polygon points="978.586,131.938 817.863,816.111 1039.172,80.299 994.109,68.224 805.504,17.688 		"/>
	</g>
	<g>
		<polygon points="1150.589,196.948 818.265,816.21 1222.476,162.749 1182.073,139.423 1012.975,41.794 		"/>
	</g>
	<g>
		<polygon points="1299.905,304.26 818.628,816.41 1378.193,289.833 1345.205,256.844 1207.136,118.776 		"/>
	</g>
	<g>
		<polygon points="1416.358,446.562 818.926,816.696 1495.714,452.888 1472.387,412.485 1374.758,243.387 		"/>
	</g>
	<g>
		<polygon points="1492.014,614.155 819.141,817.051 1567.027,640.805 1554.953,595.741 1504.416,407.136 		"/>
	</g>
	<g>
		<polygon points="1521.715,795.619 819.256,817.449 1587.275,840.775 1587.275,794.122 1587.275,598.864 		"/>
	</g>
	<g>
		<polygon points="1503.437,978.586 819.264,817.863 1555.076,1039.172 1567.151,994.109 1617.688,805.504 		"/>
	</g>
	<g>
		<polygon points="1438.427,1150.589 819.165,818.265 1472.626,1222.476 1495.953,1182.073 1593.582,1012.975 		"/>
	</g>
	<g>
		<polygon points="1331.115,1299.905 818.966,818.628 1345.543,1378.193 1378.531,1345.205 1516.6,1207.136 		"/>
	</g>
	<g>
		<polygon points="1188.813,1416.358 818.679,818.926 1182.487,1495.714 1222.89,1472.387 1391.988,1374.758 		"/>
	</g>
	<g>
		<polygon points="1021.22,1492.014 818.324,819.141 994.57,1567.027 1039.634,1554.953 1228.239,1504.416 		"/>
	</g>
	<g>
		<polygon points="839.757,1521.715 817.927,819.256 794.6,1587.275 841.253,1587.275 1036.511,1587.275 		"/>
	</g>
</g>
</svg>
